<?xml version="1.0" encoding="utf-8" ?>
<svg xmlns="http://www.w3.org/2000/svg" xmlns:xlink="http://www.w3.org/1999/xlink" width="1345" height="1348"
     viewBox="0 0 1250 900">
    <path fill="#38497D" transform="matrix(2.69539 0 0 2.696 -0.00012207 0)"
          d="M110.909 239.246C109.959 236.404 108.585 233.713 107.498 230.922C105.453 225.675 103.7 220.076 102.266 214.625C97.5288 196.61 97.5663 167.784 102.198 149.66C104.72 139.79 108.182 129.778 112.8 120.691C123.232 100.163 142.332 79.0073 162.21 67.2581C169.344 63.0412 177.085 58.9608 184.874 56.0806C188.193 54.8529 191.712 53.9597 195.106 52.9296C199.68 51.5411 204.292 50.1936 209.033 49.49C210.922 49.2098 212.851 49.176 214.751 48.992C222.143 48.2763 229.253 47.9848 236.69 48.0901C245.658 48.217 255.3 48.7817 263.992 51.0581C270.717 52.8194 277.515 54.8252 283.974 57.4046C308.012 67.2724 328.709 83.8371 343.603 105.128C346.296 108.958 348.695 113.036 351.048 117.08C362.913 137.47 369.089 165.991 367.689 189.442C367.26 196.621 365.883 204.271 364.039 211.22C363.989 213.855 363.59 220.203 361.895 222.218C361.732 222.413 361.64 222.443 361.442 222.549C359.517 222.006 358.482 218.777 356.439 218.731C355.876 219.561 355.927 220.574 356.103 221.547C356.674 224.698 359.091 228.1 358.617 231.327L358.27 231.675C357.341 231.439 352.433 225.269 351.147 224.021C344.083 217.167 335.547 211.963 328.824 204.704C323.964 199.457 320.38 193.158 316.158 187.429C314.561 185.262 312.838 183.011 311.014 181.026C309.712 179.609 308.257 178.344 306.969 176.917C307.36 179.466 307.968 181.674 309.049 184.018C310.319 186.768 311.84 189.532 313.36 192.151C314.923 194.843 321.771 204.878 320.376 207.744C319.846 207.868 319.794 207.857 319.342 207.579C318.397 206.998 317.56 205.878 316.668 205.163C313.029 202.25 308.784 199.504 305.556 196.153C306.3 198.607 306.824 201.139 307.717 203.542C310.669 211.488 315.504 219.194 320.349 226.115C323.473 230.577 328.323 236.037 330.143 241.074C329.205 240.746 328.209 240.427 327.379 239.871C322.112 236.337 317.792 231.123 313.437 226.572L301 213.788C299.407 212.157 295.897 209.319 294.802 207.893C294.927 212.282 295.646 215.741 297.022 219.906C297.382 220.993 298.289 222.733 297.874 223.821C297.309 224.137 297.034 224.153 296.397 223.989C292.737 223.046 285.553 217.601 283.25 214.604C283.448 216.135 283.62 217.677 284.045 219.165C285.759 225.157 291.556 233.66 295.017 239.091C303.09 251.758 314.217 266.724 318.242 281.165C314.444 278.991 312.06 275.33 308.6 272.693C306.687 271.234 304.733 269.771 302.594 268.657C300.557 267.595 298.285 266.932 296.091 266.277C285.479 263.105 275.298 264.151 264.733 267.051C261.051 268.061 257.611 269.645 254.136 271.197C245.612 275.004 237.594 279.429 229.321 283.724C225.833 285.534 222.283 287.41 218.684 288.985C216.014 290.155 213.262 291.135 210.584 292.287C206.363 294.103 201.589 296.667 196.975 297.236C193.277 297.692 184.411 295.179 181.144 293.297C180.55 292.956 179.97 292.591 179.406 292.203C183.149 290.745 187.031 290.402 190.755 289.085C194.209 287.864 197.593 286.429 201.007 285.1C203.267 284.22 205.619 283.536 207.846 282.582C222.789 276.178 235.053 267.107 243.963 253.371C245.873 250.426 247.924 247.481 249.341 244.26C250.946 240.61 252.987 236.303 253.81 232.398C254.407 229.564 254.447 226.624 255.013 223.763C252.671 227.259 250.736 231.033 248.428 234.558C244.438 240.652 238.66 245.973 232.704 250.109C231.016 251.281 228.462 253.222 226.474 253.706C225.873 253.853 225.631 253.825 225.115 253.505C224.91 252.216 225.87 251.07 226.603 250.052C228.185 247.856 230.128 245.923 231.863 243.849C239.68 234.507 250.218 222.905 251.618 210.35L251.456 210.113C250.098 211.269 249.331 213.3 248.085 214.682C244.335 218.842 229.471 233.676 224.641 233.879L223.381 233.072C223.875 231.962 224.453 230.883 224.908 229.757C217.654 235.745 209.657 240.662 201.862 245.891C199.239 247.65 196.369 250.441 193.312 251.278L192.66 251.149C192.433 250.583 192.489 250.669 192.712 250.137C193.852 247.419 196.006 245.272 197.581 242.816C198.293 241.706 198.788 240.415 199.309 239.206C194.884 236.61 192.986 231.943 190.26 227.945L190.317 228.37C190.628 230.61 192.87 236.771 192.253 238.477C191.562 238.63 191.04 238.501 190.427 238.137C187.049 236.127 181.787 229.184 179.729 225.73C180.189 229.992 180.647 233.967 182.063 238.044C182.994 240.726 189.553 254.574 189.185 255.694L188.723 256.043C187.738 255.851 187.221 255.038 186.697 254.254C184.903 251.569 183.014 248.878 181.31 246.14C179.329 242.956 177.504 239.649 175.274 236.628C174.873 245.712 177.764 265.182 170.368 271.549C170.11 271.771 169.834 271.922 169.537 272.084L169.256 271.946C168.318 266.049 168.653 260.209 166.262 254.592L165.983 254.851C164.202 256.534 163.026 258.662 161.43 260.503C157.736 264.764 145.66 277.727 140.118 277.546C136.603 277.431 133.338 273.89 131.129 271.44C129.947 270.129 128.752 268.385 128.873 266.533C129.088 263.239 135.489 259.155 135.041 256.225L134.685 256.113C131.128 258.728 129.157 261.074 124.961 262.998C122.086 260.484 119.913 257.271 119.68 253.366C119.593 251.915 119.667 250.441 119.706 248.989L117.645 251.837C114.369 247.876 112.267 244.204 110.909 239.246ZM261.696 197.483C257.566 194.222 254.083 190.563 250.516 186.722C240.048 195.636 232.325 207.73 223.513 218.211C220.366 221.953 217.196 225.704 213.786 229.209C211.259 231.806 208.454 234.199 206.047 236.898C203.365 232.942 200.21 229.09 198.094 224.804C196.355 221.281 195.336 217.545 193.93 213.899C192.465 215.024 191.016 216.22 189.471 217.231C185.124 210.769 180.797 204.322 176.311 197.951C173.477 193.925 170.355 190.079 167.873 185.819C165.023 189.639 163.237 194.517 161.018 198.733C153.509 212.995 146.245 227.854 135.209 239.827C131.432 236.086 128.044 231.541 125.053 227.151C123.758 225.25 122.724 222.936 121.183 221.241C120.642 220.646 120.159 220.202 119.325 220.167C117.64 222.047 116.971 225.743 116.097 228.116C115.429 229.93 112.033 238.625 110.909 239.246C112.267 244.204 114.369 247.876 117.645 251.837L119.706 248.989C119.667 250.441 119.593 251.915 119.68 253.366C119.913 257.271 122.086 260.484 124.961 262.998C129.157 261.074 131.128 258.728 134.685 256.113L135.041 256.225C135.489 259.155 129.088 263.239 128.873 266.533C128.752 268.385 129.947 270.129 131.129 271.44C133.338 273.89 136.603 277.431 140.118 277.546C145.66 277.727 157.736 264.764 161.43 260.503C163.026 258.662 164.202 256.534 165.983 254.851L166.262 254.592C168.653 260.209 168.318 266.049 169.256 271.946L169.537 272.084C169.834 271.922 170.11 271.771 170.368 271.549C177.764 265.182 174.873 245.712 175.274 236.628C177.504 239.649 179.329 242.956 181.31 246.14C183.014 248.878 184.903 251.569 186.697 254.254C187.221 255.038 187.738 255.851 188.723 256.043L189.185 255.694C189.553 254.574 182.994 240.726 182.063 238.044C180.647 233.967 180.189 229.992 179.729 225.73C181.787 229.184 187.049 236.127 190.427 238.137C191.04 238.501 191.562 238.63 192.253 238.477C192.87 236.771 190.628 230.61 190.317 228.37L190.26 227.945C192.986 231.943 194.884 236.61 199.309 239.206C198.788 240.415 198.293 241.706 197.581 242.816C196.006 245.272 193.852 247.419 192.712 250.137C192.489 250.669 192.433 250.583 192.66 251.149L193.312 251.278C196.369 250.441 199.239 247.65 201.862 245.891C209.657 240.662 217.654 235.745 224.908 229.757C224.453 230.883 223.875 231.962 223.381 233.072L224.641 233.879C229.471 233.676 244.335 218.842 248.085 214.682C249.331 213.3 250.098 211.269 251.456 210.113L251.618 210.35C250.218 222.905 239.68 234.507 231.863 243.849C230.128 245.923 228.185 247.856 226.603 250.052C225.87 251.07 224.91 252.216 225.115 253.505C225.631 253.825 225.873 253.853 226.474 253.706C228.462 253.222 231.016 251.281 232.704 250.109C238.66 245.973 244.438 240.652 248.428 234.558C250.736 231.033 252.671 227.259 255.013 223.763C254.447 226.624 254.407 229.564 253.81 232.398C252.987 236.303 250.946 240.61 249.341 244.26C247.924 247.481 245.873 250.426 243.963 253.371C235.053 267.107 222.789 276.178 207.846 282.582C205.619 283.536 203.267 284.22 201.007 285.1C197.593 286.429 194.209 287.864 190.755 289.085C187.031 290.402 183.149 290.745 179.406 292.203C179.97 292.591 180.55 292.956 181.144 293.297C184.411 295.179 193.277 297.692 196.975 297.236C201.589 296.667 206.363 294.103 210.584 292.287C213.262 291.135 216.014 290.155 218.684 288.985C222.283 287.41 225.833 285.534 229.321 283.724C237.594 279.429 245.612 275.004 254.136 271.197C257.611 269.645 261.051 268.061 264.733 267.051C275.298 264.151 285.479 263.105 296.091 266.277C298.285 266.932 300.557 267.595 302.594 268.657C304.733 269.771 306.687 271.234 308.6 272.693C312.06 275.33 314.444 278.991 318.242 281.165C314.217 266.724 303.09 251.758 295.017 239.091C291.556 233.66 285.759 225.157 284.045 219.165C283.62 217.677 283.448 216.135 283.25 214.604C285.553 217.601 292.737 223.046 296.397 223.989C297.034 224.153 297.309 224.137 297.874 223.821C298.289 222.733 297.382 220.993 297.022 219.906C295.646 215.741 294.927 212.282 294.802 207.893C295.897 209.319 299.407 212.157 301 213.788L313.437 226.572C317.792 231.123 322.112 236.337 327.379 239.871C328.209 240.427 329.205 240.746 330.143 241.074C328.323 236.037 323.473 230.577 320.349 226.115C315.504 219.194 310.669 211.488 307.717 203.542C306.824 201.139 306.3 198.607 305.556 196.153C308.784 199.504 313.029 202.25 316.668 205.163C317.56 205.878 318.397 206.998 319.342 207.579C319.794 207.857 319.846 207.868 320.376 207.744C321.771 204.878 314.923 194.843 313.36 192.151C311.84 189.532 310.319 186.768 309.049 184.018C307.968 181.674 307.36 179.466 306.969 176.917C308.257 178.344 309.712 179.609 311.014 181.026C312.838 183.011 314.561 185.262 316.158 187.429C320.38 193.158 323.964 199.457 328.824 204.704C335.547 211.963 344.083 217.167 351.147 224.021C352.433 225.269 357.341 231.439 358.27 231.675L358.617 231.327C359.091 228.1 356.674 224.698 356.103 221.547C355.927 220.574 355.876 219.561 356.439 218.731C358.482 218.777 359.517 222.006 361.442 222.549C361.64 222.443 361.732 222.413 361.895 222.218C363.59 220.203 363.989 213.855 364.039 211.22C360.672 208.383 358.671 204.216 355.354 201.29C352.414 205.756 351.431 210.182 345.635 211.671C344.622 211.241 343.732 210.815 342.863 210.124C339.109 207.138 336.016 202.902 332.973 199.213C325.926 190.669 319.172 182.025 312.832 172.937C307.656 165.516 302.882 157.051 296.43 150.702C293.934 153.851 292.277 157.387 290.785 161.1C290.103 162.797 289.542 164.861 288.481 166.362C288.065 166.951 287.799 167.192 287.052 167.266C285.157 167.454 281.98 164.373 280.305 165.87C277.39 168.477 269.684 183.962 267.158 188.433C265.421 191.508 263.472 194.435 261.696 197.483Z"/>
    <path fill="#15003B" transform="matrix(2.69539 0 0 2.696 -0.00012207 0)"
          d="M296.43 150.702C302.882 157.051 307.656 165.516 312.832 172.937C319.172 182.025 325.926 190.669 332.973 199.213C336.016 202.902 339.109 207.138 342.863 210.124C343.732 210.815 344.622 211.241 345.635 211.671C351.431 210.182 352.414 205.756 355.354 201.29C358.671 204.216 360.672 208.383 364.039 211.22C363.989 213.855 363.59 220.203 361.895 222.218C361.732 222.413 361.64 222.443 361.442 222.549C359.517 222.006 358.482 218.777 356.439 218.731C355.876 219.561 355.927 220.574 356.103 221.547C356.674 224.698 359.091 228.1 358.617 231.327L358.27 231.675C357.341 231.439 352.433 225.269 351.147 224.021C344.083 217.167 335.547 211.963 328.824 204.704C323.964 199.457 320.38 193.158 316.158 187.429C314.561 185.262 312.838 183.011 311.014 181.026C309.712 179.609 308.257 178.344 306.969 176.917C307.36 179.466 307.968 181.674 309.049 184.018C310.319 186.768 311.84 189.532 313.36 192.151C314.923 194.843 321.771 204.878 320.376 207.744C319.846 207.868 319.794 207.857 319.342 207.579C318.397 206.998 317.56 205.878 316.668 205.163C313.029 202.25 308.784 199.504 305.556 196.153C306.3 198.607 306.824 201.139 307.717 203.542C310.669 211.488 315.504 219.194 320.349 226.115C323.473 230.577 328.323 236.037 330.143 241.074C329.205 240.746 328.209 240.427 327.379 239.871C322.112 236.337 317.792 231.123 313.437 226.572L301 213.788C299.407 212.157 295.897 209.319 294.802 207.893C294.927 212.282 295.646 215.741 297.022 219.906C297.382 220.993 298.289 222.733 297.874 223.821C297.309 224.137 297.034 224.153 296.397 223.989C292.737 223.046 285.553 217.601 283.25 214.604C283.448 216.135 283.62 217.677 284.045 219.165C285.759 225.157 291.556 233.66 295.017 239.091C303.09 251.758 314.217 266.724 318.242 281.165C314.444 278.991 312.06 275.33 308.6 272.693C306.687 271.234 304.733 269.771 302.594 268.657C300.557 267.595 298.285 266.932 296.091 266.277C285.479 263.105 275.298 264.151 264.733 267.051C261.051 268.061 257.611 269.645 254.136 271.197C245.612 275.004 237.594 279.429 229.321 283.724C225.833 285.534 222.283 287.41 218.684 288.985C216.014 290.155 213.262 291.135 210.584 292.287C206.363 294.103 201.589 296.667 196.975 297.236C193.277 297.692 184.411 295.179 181.144 293.297C180.55 292.956 179.97 292.591 179.406 292.203C183.149 290.745 187.031 290.402 190.755 289.085C194.209 287.864 197.593 286.429 201.007 285.1C203.267 284.22 205.619 283.536 207.846 282.582C222.789 276.178 235.053 267.107 243.963 253.371C245.873 250.426 247.924 247.481 249.341 244.26C250.946 240.61 252.987 236.303 253.81 232.398C254.407 229.564 254.447 226.624 255.013 223.763C252.671 227.259 250.736 231.033 248.428 234.558C244.438 240.652 238.66 245.973 232.704 250.109C231.016 251.281 228.462 253.222 226.474 253.706C225.873 253.853 225.631 253.825 225.115 253.505C224.91 252.216 225.87 251.07 226.603 250.052C228.185 247.856 230.128 245.923 231.863 243.849C239.68 234.507 250.218 222.905 251.618 210.35L251.456 210.113C250.098 211.269 249.331 213.3 248.085 214.682C244.335 218.842 229.471 233.676 224.641 233.879L223.381 233.072C223.875 231.962 224.453 230.883 224.908 229.757C217.654 235.745 209.657 240.662 201.862 245.891C199.239 247.65 196.369 250.441 193.312 251.278L192.66 251.149C192.433 250.583 192.489 250.669 192.712 250.137C193.852 247.419 196.006 245.272 197.581 242.816C198.293 241.706 198.788 240.415 199.309 239.206C194.884 236.61 192.986 231.943 190.26 227.945L190.317 228.37C190.628 230.61 192.87 236.771 192.253 238.477C191.562 238.63 191.04 238.501 190.427 238.137C187.049 236.127 181.787 229.184 179.729 225.73C180.189 229.992 180.647 233.967 182.063 238.044C182.994 240.726 189.553 254.574 189.185 255.694L188.723 256.043C187.738 255.851 187.221 255.038 186.697 254.254C184.903 251.569 183.014 248.878 181.31 246.14C179.329 242.956 177.504 239.649 175.274 236.628C174.873 245.712 177.764 265.182 170.368 271.549C170.11 271.771 169.834 271.922 169.537 272.084L169.256 271.946C168.318 266.049 168.653 260.209 166.262 254.592L165.983 254.851C164.202 256.534 163.026 258.662 161.43 260.503C157.736 264.764 145.66 277.727 140.118 277.546C136.603 277.431 133.338 273.89 131.129 271.44C129.947 270.129 128.752 268.385 128.873 266.533C129.088 263.239 135.489 259.155 135.041 256.225L134.685 256.113C131.128 258.728 129.157 261.074 124.961 262.998C122.086 260.484 119.913 257.271 119.68 253.366C119.593 251.915 119.667 250.441 119.706 248.989L117.645 251.837C114.369 247.876 112.267 244.204 110.909 239.246C112.033 238.625 115.429 229.93 116.097 228.116C116.971 225.743 117.64 222.047 119.325 220.167C120.159 220.202 120.642 220.646 121.183 221.241C122.724 222.936 123.758 225.25 125.053 227.151C128.044 231.541 131.432 236.086 135.209 239.827C146.245 227.854 153.509 212.995 161.018 198.733C163.237 194.517 165.023 189.639 167.873 185.819C170.355 190.079 173.477 193.925 176.311 197.951C180.797 204.322 185.124 210.769 189.471 217.231C191.016 216.22 192.465 215.024 193.93 213.899C195.336 217.545 196.355 221.281 198.094 224.804C200.21 229.09 203.365 232.942 206.047 236.898C208.454 234.199 211.259 231.806 213.786 229.209C217.196 225.704 220.366 221.953 223.513 218.211C232.325 207.73 240.048 195.636 250.516 186.722C254.083 190.563 257.566 194.222 261.696 197.483C263.472 194.435 265.421 191.508 267.158 188.433C269.684 183.962 277.39 168.477 280.305 165.87C281.98 164.373 285.157 167.454 287.052 167.266C287.799 167.192 288.065 166.951 288.481 166.362C289.542 164.861 290.103 162.797 290.785 161.1C292.277 157.387 293.934 153.851 296.43 150.702ZM297.521 165.377C297.59 166.504 297.539 167.673 298.109 168.674C298.842 169.201 299.281 169.264 300.163 169.259C299.885 168.028 299.102 166.351 298.029 165.602C297.802 165.443 297.752 165.445 297.521 165.377ZM296.713 177.951C294.74 176.749 293.012 175.894 290.776 175.281C291.082 178.116 292.785 187.855 291.624 189.935C291.385 189.952 291.141 190.033 290.905 189.988C290.123 189.835 285.656 186.169 284.756 185.405C283.76 184.56 283.028 183.42 282.286 182.354C282.461 184.533 283.06 192.248 281.887 193.873C281.676 194.165 281.429 194.457 281.056 194.517C279.852 194.713 278.943 193.677 277.659 194.034L277.466 194.448C279.677 198.782 285.73 204.191 289.133 207.937C288.178 204.97 285.938 195.481 287.277 192.873C287.492 192.454 287.587 192.498 287.989 192.318C289.564 192.584 290.375 194.171 291.508 195.141C292.913 196.344 299.557 202.701 300.564 202.682C300.782 201.677 297.732 194.834 297.288 193.121C296.5 190.053 296.1 186.899 296.098 183.732C296.088 182.874 295.955 181.883 296.074 181.039C296.159 180.432 296.368 180.233 296.852 179.903C298.154 179.988 299.98 181.56 300.953 182.418C301.012 182.514 301.063 182.614 301.129 182.706C301.468 183.184 301.889 183.439 302.369 183.752L302.702 183.71C302.808 182.413 298.348 174.936 297.786 172.125C297.542 170.907 297.378 169.366 296.317 168.592L295.949 168.773C295.296 171.365 296.611 175.026 296.705 177.78L296.713 177.951ZM163.614 210.024C164.082 213.479 166.091 225.214 164.386 227.599C163.286 227.415 161.201 224.045 160.43 223.004C159.966 228.455 159.775 233.9 157.836 239.075C157.112 236.722 155.905 232.385 153.939 230.775L153.602 230.86C151.426 236.492 152.659 243.739 150.229 249.955C149.008 253.078 147.347 256.186 145.522 259.003C144.578 260.461 141.266 263.617 141.071 265.008C144.626 264.032 154.597 255.526 157.357 252.654C159.283 250.649 161.248 248.29 162.602 245.855C164.163 243.049 164.628 239.593 165.701 236.571L167.714 238.58C168.527 239.379 168.952 240.143 169.447 241.154L169.674 241.228C169.919 239.908 169.542 238.534 169.606 237.184C169.777 233.572 166.05 216.979 166.586 215.517C167.112 215.151 167.173 215.059 167.803 215.062C169.129 216.332 170.136 218.279 171.622 219.269C171.801 217.837 170.325 215.334 169.974 213.883C169.764 213.012 169.709 212.09 169.643 211.198C169.585 210.406 169.671 208.759 169.123 208.15C169.037 208.055 168.927 207.986 168.829 207.905C168.593 209.407 168.532 211.011 167.755 212.339C167.396 212.535 167.284 212.709 166.856 212.601C165.647 212.299 164.49 210.881 163.614 210.024Z"/>
</svg>